<svg width="160" height="23" viewBox="0 0 160 23" fill="none" xmlns="http://www.w3.org/2000/svg">
<path d="M0.972 22V1.526H4.22L12.282 14.083H10.629L18.662 1.526H21.939V22H17.386V9.211L18.198 9.414L12.949 17.592H9.933L4.713 9.414L5.496 9.211V22H0.972Z" fill="#FF532E"/>
<path d="M31.3466 22.29C30.0512 22.29 28.8912 21.971 27.8666 21.333C26.8612 20.695 26.0589 19.825 25.4596 18.723C24.8796 17.621 24.5896 16.3643 24.5896 14.953C24.5896 13.5417 24.8796 12.285 25.4596 11.183C26.0589 10.081 26.8612 9.211 27.8666 8.573C28.8912 7.935 30.0512 7.616 31.3466 7.616C32.2939 7.616 33.1446 7.79967 33.8986 8.167C34.6719 8.53433 35.3002 9.04667 35.7836 9.704C36.2669 10.342 36.5376 11.0767 36.5956 11.908V17.998C36.5376 18.8293 36.2669 19.5737 35.7836 20.231C35.3196 20.869 34.7009 21.3717 33.9276 21.739C33.1542 22.1063 32.2939 22.29 31.3466 22.29ZM32.2456 18.288C33.1929 18.288 33.9566 17.9787 34.5366 17.36C35.1166 16.722 35.4066 15.9197 35.4066 14.953C35.4066 14.2957 35.2712 13.7157 35.0006 13.213C34.7492 12.7103 34.3819 12.3237 33.8986 12.053C33.4346 11.763 32.8932 11.618 32.2746 11.618C31.6559 11.618 31.1049 11.763 30.6216 12.053C30.1576 12.3237 29.7806 12.7103 29.4906 13.213C29.2199 13.7157 29.0846 14.2957 29.0846 14.953C29.0846 15.591 29.2199 16.1613 29.4906 16.664C29.7612 17.1667 30.1382 17.563 30.6216 17.853C31.1049 18.143 31.6462 18.288 32.2456 18.288ZM35.2326 22V18.201L35.8996 14.779L35.2326 11.357V7.906H39.5826V22H35.2326ZM42.7066 22V7.906H47.1436V22H42.7066ZM47.1436 14.257L45.2876 12.807C45.655 11.1637 46.2736 9.88767 47.1436 8.979C48.0136 8.07033 49.222 7.616 50.7686 7.616C51.4453 7.616 52.035 7.72233 52.5376 7.935C53.0596 8.12833 53.514 8.43767 53.9006 8.863L51.2616 12.198C51.0683 11.9853 50.8266 11.821 50.5366 11.705C50.2466 11.589 49.918 11.531 49.5506 11.531C48.816 11.531 48.2263 11.763 47.7816 12.227C47.3563 12.6717 47.1436 13.3483 47.1436 14.257ZM64.1016 22L59.1716 14.692L64.0726 7.906H69.0316L63.1156 15.533L63.2606 13.706L69.3216 22H64.1016ZM55.0826 22V0.946H59.5196V22H55.0826ZM77.2506 22.319C75.7233 22.319 74.3603 22.0097 73.1616 21.391C71.9823 20.753 71.0543 19.8733 70.3776 18.752C69.7009 17.6307 69.3626 16.3643 69.3626 14.953C69.3626 13.5417 69.6913 12.285 70.3486 11.183C71.0253 10.0617 71.9339 9.182 73.0746 8.544C74.2153 7.906 75.5009 7.587 76.9316 7.587C78.3236 7.587 79.5513 7.88667 80.6146 8.486C81.6779 9.08533 82.5093 9.91667 83.1086 10.98C83.7273 12.0433 84.0366 13.2613 84.0366 14.634C84.0366 14.8853 84.0173 15.156 83.9786 15.446C83.9593 15.7167 83.9109 16.0357 83.8336 16.403L71.6826 16.432V13.387L81.9486 13.358L80.0346 14.634C80.0153 13.822 79.8896 13.155 79.6576 12.633C79.4256 12.0917 79.0776 11.6857 78.6136 11.415C78.1689 11.125 77.6179 10.98 76.9606 10.98C76.2646 10.98 75.6556 11.1443 75.1336 11.473C74.6309 11.7823 74.2346 12.227 73.9446 12.807C73.6739 13.387 73.5386 14.0927 73.5386 14.924C73.5386 15.7553 73.6836 16.4707 73.9736 17.07C74.2829 17.65 74.7083 18.1043 75.2496 18.433C75.8103 18.7423 76.4676 18.897 77.2216 18.897C77.9176 18.897 78.5459 18.781 79.1066 18.549C79.6673 18.2977 80.1603 17.9303 80.5856 17.447L83.0216 19.883C82.3256 20.695 81.4846 21.304 80.4986 21.71C79.5126 22.116 78.4299 22.319 77.2506 22.319ZM87.8678 22V2.077H92.3048V22H87.8678ZM84.6778 11.676V7.906H95.4948V11.676H84.6778ZM97.8558 22V1.526H102.409V22H97.8558ZM101.336 13.967V10.052H111.573V13.967H101.336ZM101.336 5.441V1.526H112.037V5.441H101.336ZM114.555 22V0.946H118.992V22H114.555ZM128.903 22.319C127.453 22.319 126.138 22 124.959 21.362C123.799 20.7047 122.88 19.8153 122.204 18.694C121.527 17.5727 121.189 16.316 121.189 14.924C121.189 13.532 121.527 12.285 122.204 11.183C122.88 10.081 123.799 9.211 124.959 8.573C126.119 7.91567 127.433 7.587 128.903 7.587C130.372 7.587 131.687 7.906 132.847 8.544C134.007 9.182 134.925 10.0617 135.602 11.183C136.278 12.285 136.617 13.532 136.617 14.924C136.617 16.316 136.278 17.5727 135.602 18.694C134.925 19.8153 134.007 20.7047 132.847 21.362C131.687 22 130.372 22.319 128.903 22.319ZM128.903 18.288C129.541 18.288 130.101 18.1527 130.585 17.882C131.068 17.592 131.435 17.1957 131.687 16.693C131.957 16.171 132.093 15.5813 132.093 14.924C132.093 14.2667 131.957 13.6963 131.687 13.213C131.416 12.7103 131.039 12.3237 130.556 12.053C130.092 11.763 129.541 11.618 128.903 11.618C128.284 11.618 127.733 11.763 127.25 12.053C126.766 12.3237 126.389 12.7103 126.119 13.213C125.848 13.7157 125.713 14.2957 125.713 14.953C125.713 15.591 125.848 16.171 126.119 16.693C126.389 17.1957 126.766 17.592 127.25 17.882C127.733 18.1527 128.284 18.288 128.903 18.288ZM141.994 22L137.122 7.906H141.472L144.488 18.143L143.212 18.172L146.547 7.906H150.143L153.507 18.172L152.202 18.143L155.247 7.906H159.597L154.725 22H151.1L147.823 12.256H148.925L145.59 22H141.994Z" fill="#1F2937"/>
</svg>
